<svg xmlns="http://www.w3.org/2000/svg" xmlns:xlink="http://www.w3.org/1999/xlink" width="200" height="120" version="1.1" viewBox="0 0 135 80"><title>Group 40</title><g id="Graphics" fill="none" fill-rule="evenodd" stroke="none" stroke-width="1"><g id="Desktop-HD" transform="translate(-44.000000, -800.000000)"><g id="Group-40" transform="translate(44.000000, 800.000000)"><rect id="Rectangle" width="135" height="80" x="0" y="0" fill="#F9F4ED" rx="6"/><path id="Rectangle" fill="#119656" stroke="#073F24" stroke-width="3.5" d="M44.4094384,27 L91.5905616,27 C92.4357889,27 93.1897647,27.5313413 93.4740454,28.3273272 L102.045474,52.3273272 C102.416981,53.3675466 101.874882,54.5119769 100.834663,54.8834838 C100.618773,54.9605872 100.391235,55 100.16199,55 L35.8380098,55 C34.7334403,55 33.8380098,54.1045695 33.8380098,53 C33.8380098,52.7707551 33.8774226,52.5432167 33.954526,52.3273272 L42.5259546,28.3273272 C42.8102353,27.5313413 43.5642111,27 44.4094384,27 Z"/><text id="Click-to-view-locati" fill="#93A29B" font-family="Heebo-Regular, Heebo" font-size="6" font-weight="normal" line-spacing="7"><tspan x="17" y="74">Click to view location on Google maps</tspan></text><polygon id="Path-16" stroke="#F9F4ED" stroke-width="3.5" points="55.683 30.515 78.992 51.463 82.012 51.463 58.979 30.515"/><g id="Group-39" transform="translate(57.000000, 10.000000)"><path id="Oval" fill="#BF3008" stroke="#6F1D06" stroke-width="3.5" d="M9.02029828,25 C10.5,25 18.0405966,14.5894024 18.0405966,9.02029828 C18.0405966,3.4511942 14.0020715,0 9.02029828,0 C4.0385251,0 0,3.02257422 0,9.02029828 C0,15.0180223 7.54059656,25 9.02029828,25 Z"/><circle id="Oval" cx="9" cy="9" r="3" fill="#6F1D06"/></g><polygon id="Path-17" stroke="#F9F4ED" stroke-width="3.5" points="71.336 39.504 81.359 30.515 84.499 30.515 73.071 40.989"/></g></g></g></svg>