<svg xmlns="http://www.w3.org/2000/svg" xmlns:xlink="http://www.w3.org/1999/xlink" width="30" height="24" version="1.1" viewBox="0 0 30 24"><title>Speed sends icon dark</title><desc>Created with Sketch.</desc><g id="Speed-sends" fill="none" fill-rule="evenodd" stroke="none" stroke-linecap="round" stroke-width="1"><g id="Desktop/Speed-sends" stroke="#073F24" stroke-width="2.8" transform="translate(-268.000000, -29.000000)"><g id="Speed-send/Icon" transform="translate(257.000000, 16.000000)"><g id="Speed-sends-icon-dark" transform="translate(13.000000, 15.000000)"><path id="Path" d="M19.5,15.8888889 L15.9798224,15.8888889 L15.9798224,19.0417755 C15.9798224,19.5940602 15.5321071,20.0417755 14.9798224,20.0417755 C14.776056,20.0417755 14.5771524,19.9795269 14.4097405,19.8633634 L8.68182635,15.8888889 L8.68182635,15.8888889 L3,15.8888889 C1.34314575,15.8888889 2.86744138e-15,14.5457431 0,12.8888889 L0,3 C-2.02906125e-16,1.34314575 1.34314575,4.15313234e-15 3,3.84877315e-15 L19.5,3.84877315e-15 L19.5,3.84877315e-15"/><line id="Path-9-Copy-2" x1="14.444" x2="26" y1="10.472" y2="10.472"/><line id="Path-9-Copy" x1="11.556" x2="23.111" y1="5.417" y2="5.417"/></g></g></g></g></svg>