<svg xmlns="http://www.w3.org/2000/svg" xmlns:xlink="http://www.w3.org/1999/xlink" width="24" height="24" version="1.1" viewBox="0 0 24 24"><title>Group</title><g id="Sheets-integration" fill="none" fill-rule="evenodd" stroke="none" stroke-width="1"><g id="Desktop/Sheets-integration" stroke="#073F24" stroke-width="2" transform="translate(-269.000000, -28.000000)"><g id="Group" transform="translate(269.000000, 28.000000)"><g id="Icon/Document/Dark"><path id="Rectangle" d="M6,1.33333333 L13.8836349,1.33333333 C14.4240155,1.33333333 14.9413997,1.55200102 15.3179868,1.93954902 L19.4343519,6.17572526 C19.7970839,6.54901497 20,7.04901008 20,7.56950957 L20,20.6666667 C20,21.7712362 19.1045695,22.6666667 18,22.6666667 L6,22.6666667 C4.8954305,22.6666667 4,21.7712362 4,20.6666667 L4,3.33333333 C4,2.22876383 4.8954305,1.33333333 6,1.33333333 Z"/><path id="Path-28" d="M13,6.87176934 L14.6511638,8.25349872 L13,8.3142577 L13,6.87176934 Z"/></g><rect id="Rectangle" width="10" height="7" x="7" y="12" stroke-linejoin="round"/><line id="Path-2" x1="7" x2="17" y1="15.5" y2="15.5"/><line id="Path-4" x1="12" x2="12" y1="12" y2="19"/></g></g></g></svg>