<svg xmlns="http://www.w3.org/2000/svg" xmlns:xlink="http://www.w3.org/1999/xlink" width="24" height="26" version="1.1" viewBox="0 0 24 26"><title>Group</title><g id="Consulting" fill="none" fill-rule="evenodd" stroke="none" stroke-width="1"><g id="Desktop/Consulting-list" stroke="#073F24" stroke-width="2" transform="translate(-270.000000, -27.000000)"><g id="Icon/Staff" transform="translate(257.000000, 16.000000)"><g id="Group" transform="translate(14.000000, 12.000000)"><path id="Oval" d="M19.882137,8.76923077 C19.882137,3.92611835 15.9305206,0 11.0559547,0 C6.18138881,0 2.22977238,3.92611835 2.22977238,8.76923077"/><path id="Oval" stroke-linejoin="round" d="M-0.592715397,14.4534384 L5.77651537,14.4534384 C5.77651537,14.3145951 5.77651537,13.6550943 5.77651537,12.4749363 C5.77651537,10.7046992 4.3507145,9.26963847 2.59189999,9.26963847 C0.833085476,9.26963847 -0.592715397,10.7046992 -0.592715397,12.4749363 C-0.592715397,13.6550943 -0.592715397,14.3145951 -0.592715397,14.4534384 Z" transform="translate(2.591900, 11.861538) rotate(-90.000000) translate(-2.591900, -11.861538)"/><path id="Oval" stroke-linejoin="round" d="M16.2234846,14.4534384 L22.5927154,14.4534384 C22.5927154,14.3145951 22.5927154,13.6550943 22.5927154,12.4749363 C22.5927154,10.7046992 21.1669145,9.26963847 19.4081,9.26963847 C17.6492855,9.26963847 16.2234846,10.7046992 16.2234846,12.4749363 C16.2234846,13.6550943 16.2234846,14.3145951 16.2234846,14.4534384 Z" transform="translate(19.408100, 11.861538) scale(-1, 1) rotate(-90.000000) translate(-19.408100, -11.861538)"/><path id="Oval" d="M14.2034521,22.2838324 C17.2386262,21.2376916 19.4176011,18.3716673 19.4176011,15"/><rect id="Rectangle" width="6.411" height="3.046" x="7.804" y="20.954" rx="1.523"/></g></g></g></g></svg>