<svg xmlns="http://www.w3.org/2000/svg" xmlns:xlink="http://www.w3.org/1999/xlink" width="18" height="18" version="1.1" viewBox="0 0 18 18"><title>Group 3</title><g id="Flows" fill="none" fill-rule="evenodd" stroke="none" stroke-width="1"><g id="Desktop/Flows/Preview" transform="translate(-257.000000, -670.000000)"><g id="Group-3" transform="translate(257.000000, 670.000000)"><g id="Group" stroke="#119656" stroke-linecap="round" stroke-width="2"><g id="Group-Copy" transform="translate(1.000000, 1.000000)"><path id="Oval" d="M9.77290024,10.7928932 C9.0563996,7.62433651 6.19396905,5.25619365 2.77188532,5.25619365 C-0.652275012,5.25619365 -3.51610273,7.62721146 -4.2304316,10.7986623" transform="translate(2.771234, 8.027428) rotate(-90.000000) translate(-2.771234, -8.027428)"/><path id="Oval" d="M20.2304316,10.7928932 C19.513931,7.62433651 16.6515004,5.25619365 13.2294167,5.25619365 C9.80525635,5.25619365 6.94142863,7.62721146 6.22709976,10.7986623" transform="translate(13.228766, 8.027428) scale(-1, 1) rotate(-90.000000) translate(-13.228766, -8.027428)"/><polyline id="Path-4" points="2.771 15.988 5.542 15.029 4.657 12.028"/><polyline id="Path-4" points="10.385 3.745 13.229 2.774 12.088 0" transform="translate(11.807063, 1.872484) scale(-1, -1) translate(-11.807063, -1.872484)"/></g></g><rect id="Rectangle" width="10" height="6" x="4" y="6" fill="#3499DB" stroke="#238CD1" rx="3"/><polygon id="1" fill="#FFF" fill-rule="nonzero" points="9.413 10.5 9.413 7.5 9.349 7.5 8 7.968 8 8.546 8.675 8.369 8.675 10.5"/></g></g></g></svg>