<svg xmlns="http://www.w3.org/2000/svg" xmlns:xlink="http://www.w3.org/1999/xlink" width="18" height="18" version="1.1" viewBox="0 0 18 18"><title>Icon/Mic/Active</title><g id="Symbols" fill="none" fill-rule="evenodd" stroke="none" stroke-width="1"><g id="Icon/Mic/Active" stroke="#073F24" stroke-width="2"><path id="Oval" stroke-linecap="round" d="M15,14 C15,10.6862915 12.3137085,8 9,8 C5.6862915,8 3,10.6862915 3,14" transform="translate(9.000000, 11.000000) scale(1, -1) translate(-9.000000, -11.000000)"/><line id="Path-33" x1="9" x2="9" y1="14" y2="18"/><path id="Combined-Shape" d="M7,3 L7.00548574,2.85073766 C7.08183488,1.81587779 7.9456382,1 9,1 C10.1045695,1 11,1.8954305 11,3 L11,3 L11,8 C11,9.1045695 10.1045695,10 9,10 C7.8954305,10 7,9.1045695 7,8 L7,8 L7,3 Z"/></g></g></svg>