<svg xmlns="http://www.w3.org/2000/svg" xmlns:xlink="http://www.w3.org/1999/xlink" width="18" height="18" version="1.1" viewBox="0 0 18 18"><title>Reset</title><g id="Reset/Dark" fill="none" fill-rule="evenodd" stroke="none" stroke-linecap="round" stroke-width="1"><g id="Group" stroke="#073F24" stroke-width="2" transform="translate(1.000000, 1.000000)"><path id="Oval" d="M9.77290024,10.7928932 C9.0563996,7.62433651 6.19396905,5.25619365 2.77188532,5.25619365 C-0.652275012,5.25619365 -3.51610273,7.62721146 -4.2304316,10.7986623" transform="translate(2.771234, 8.027428) rotate(-90.000000) translate(-2.771234, -8.027428)"/><path id="Oval" d="M20.2304316,10.7928932 C19.513931,7.62433651 16.6515004,5.25619365 13.2294167,5.25619365 C9.80525635,5.25619365 6.94142863,7.62721146 6.22709976,10.7986623" transform="translate(13.228766, 8.027428) scale(-1, 1) rotate(-90.000000) translate(-13.228766, -8.027428)"/><polyline id="Path-4" points="2.771 15.988 5.542 15.029 4.657 12.028"/><polyline id="Path-4" points="10.385 3.745 13.229 2.774 12.088 0" transform="translate(11.807063, 1.872484) scale(-1, -1) translate(-11.807063, -1.872484)"/></g></g></svg>